<?xml version="1.0" encoding="UTF-8" standalone="no"?>
<!DOCTYPE svg PUBLIC "-//W3C//DTD SVG 1.1//EN"
 "http://www.w3.org/Graphics/SVG/1.1/DTD/svg11.dtd">
<!-- Generated by graphviz version 2.49.3 (0)
 -->
<!-- Title: G Pages: 1 -->
<svg width="1223pt" height="782pt"
 viewBox="0.00 0.00 1223.00 782.00" xmlns="http://www.w3.org/2000/svg" xmlns:xlink="http://www.w3.org/1999/xlink">
<g id="graph0" class="graph" transform="scale(1 1) rotate(0) translate(4 778)">
<title>G</title>
<polygon fill="white" stroke="transparent" points="-4,4 -4,-778 1219,-778 1219,4 -4,4"/>
<g id="clust1" class="cluster">
<title>cluster_root</title>
<g id="a_clust1"><a xlink:title="eventq_index=0&#10;full_system=false&#10;sim_quantum=1000000000&#10;time_sync_enable=false&#10;time_sync_period=100000000000&#10;time_sync_spin_threshold=100000000">
<path fill="#bab6ae" stroke="#000000" d="M20,-8C20,-8 1195,-8 1195,-8 1201,-8 1207,-14 1207,-20 1207,-20 1207,-754 1207,-754 1207,-760 1201,-766 1195,-766 1195,-766 20,-766 20,-766 14,-766 8,-760 8,-754 8,-754 8,-20 8,-20 8,-14 14,-8 20,-8"/>
<text text-anchor="middle" x="607.5" y="-750.8" font-family="Arial" font-size="14.00" fill="#000000">root </text>
<text text-anchor="middle" x="607.5" y="-735.8" font-family="Arial" font-size="14.00" fill="#000000">: Root</text>
</a>
</g>
</g>
<g id="clust2" class="cluster">
<title>cluster_board</title>
<g id="a_clust2"><a xlink:title="auto_unlink_shared_backstore=false&#10;cache_line_size=64&#10;eventq_index=0&#10;exit_on_work_items=true&#10;init_param=0&#10;m5ops_base=4294967296&#10;mem_mode=atomic_noncaching&#10;mem_ranges=0:4294967296&#10;memories=board.memory.mem_ctrl.dram&#10;mmap_using_noreserve=false&#10;multi_thread=false&#10;&#10;um_work_ids=16&#10;&#13;eadfile=&#10;&#13;edirect_paths=&#10;shadow_rom_ranges=&#10;shared_backstore=&#10;symbolfile=&#10;thermal_components=&#10;thermal_model=Null&#10;work_begin_ckpt_count=0&#10;work_begin_cpu_id_exit=&#45;1&#10;work_begin_exit_count=0&#10;work_cpus_ckpt_count=0&#10;work_end_ckpt_count=0&#10;work_end_exit_count=0&#10;work_item_id=&#45;1&#10;workload=board.workload">
<path fill="#e4e7eb" stroke="#000000" d="M28,-16C28,-16 1187,-16 1187,-16 1193,-16 1199,-22 1199,-28 1199,-28 1199,-708 1199,-708 1199,-714 1193,-720 1187,-720 1187,-720 28,-720 28,-720 22,-720 16,-714 16,-708 16,-708 16,-28 16,-28 16,-22 22,-16 28,-16"/>
<text text-anchor="middle" x="607.5" y="-704.8" font-family="Arial" font-size="14.00" fill="#000000">board </text>
<text text-anchor="middle" x="607.5" y="-689.8" font-family="Arial" font-size="14.00" fill="#000000">: SimpleBoard</text>
</a>
</g>
</g>
<g id="clust6" class="cluster">
<title>cluster_board_processor</title>
<g id="a_clust6"><a xlink:title="eventq_index=0&#10;thermal_domain=Null">
<path fill="#bab6ae" stroke="#000000" d="M284,-314C284,-314 1179,-314 1179,-314 1185,-314 1191,-320 1191,-326 1191,-326 1191,-662 1191,-662 1191,-668 1185,-674 1179,-674 1179,-674 284,-674 284,-674 278,-674 272,-668 272,-662 272,-662 272,-326 272,-326 272,-320 278,-314 284,-314"/>
<text text-anchor="middle" x="731.5" y="-658.8" font-family="Arial" font-size="14.00" fill="#000000">processor </text>
<text text-anchor="middle" x="731.5" y="-643.8" font-family="Arial" font-size="14.00" fill="#000000">: CustomSwitchableProcessor</text>
</a>
</g>
</g>
<g id="clust7" class="cluster">
<title>cluster_board_processor_start</title>
<g id="a_clust7"><a xlink:title="eventq_index=0&#10;thermal_domain=Null">
<path fill="#9f9c95" stroke="#000000" d="M292,-322C292,-322 1171,-322 1171,-322 1177,-322 1183,-328 1183,-334 1183,-334 1183,-616 1183,-616 1183,-622 1177,-628 1171,-628 1171,-628 292,-628 292,-628 286,-628 280,-622 280,-616 280,-616 280,-334 280,-334 280,-328 286,-322 292,-322"/>
<text text-anchor="middle" x="731.5" y="-612.8" font-family="Arial" font-size="14.00" fill="#000000">start </text>
<text text-anchor="middle" x="731.5" y="-597.8" font-family="Arial" font-size="14.00" fill="#000000">: BaseCPUCore</text>
</a>
</g>
</g>
<g id="clust8" class="cluster">
<title>cluster_board_processor_start_core</title>
<g id="a_clust8"><a xlink:title="alwaysSyncTC=false&#10;checker=Null&#10;clk_domain=board.clk_domain&#10;cpu_id=0&#10;decoder=board.processor.start.core.decoder&#10;do_checkpoint_insts=true&#10;do_statistics_insts=true&#10;eventq_index=1&#10;function_trace=false&#10;function_trace_start=0&#10;hostFactor=1.0&#10;hostFreq=500&#10;interrupts=board.processor.start.core.interrupts&#10;isa=board.processor.start.core.isa&#10;max_insts_all_threads=0&#10;max_insts_any_thread=15800000000&#10;mmu=board.processor.start.core.mmu&#10;&#10;umThreads=1&#10;power_gating_on_idle=false&#10;power_model=&#10;power_state=board.processor.start.core.power_state&#10;progress_interval=0&#10;pwr_gating_latency=300&#10;simpoint_start_insts=&#10;socket_id=0&#10;switched_out=false&#10;syscallRetryLatency=10000&#10;system=board&#10;tracer=board.processor.start.core.tracer&#10;useCoalescedMMIO=false&#10;usePerf=true&#10;usePerfOverflow=false&#10;useXSave=true&#10;workload=board.processor.start.core.workload">
<path fill="#bbc6d9" stroke="#000000" d="M300,-330C300,-330 1163,-330 1163,-330 1169,-330 1175,-336 1175,-342 1175,-342 1175,-570 1175,-570 1175,-576 1169,-582 1163,-582 1163,-582 300,-582 300,-582 294,-582 288,-576 288,-570 288,-570 288,-342 288,-342 288,-336 294,-330 300,-330"/>
<text text-anchor="middle" x="731.5" y="-566.8" font-family="Arial" font-size="14.00" fill="#000000">core </text>
<text text-anchor="middle" x="731.5" y="-551.8" font-family="Arial" font-size="14.00" fill="#000000">: X86KvmCPU</text>
</a>
</g>
</g>
<g id="clust9" class="cluster">
<title>cluster_board_processor_start_core_mmu</title>
<g id="a_clust9"><a xlink:title="dtb=board.processor.start.core.mmu.dtb&#10;eventq_index=0&#10;itb=board.processor.start.core.mmu.itb">
<path fill="#bab6ae" stroke="#000000" d="M617,-338C617,-338 951,-338 951,-338 957,-338 963,-344 963,-350 963,-350 963,-524 963,-524 963,-530 957,-536 951,-536 951,-536 617,-536 617,-536 611,-536 605,-530 605,-524 605,-524 605,-350 605,-350 605,-344 611,-338 617,-338"/>
<text text-anchor="middle" x="784" y="-520.8" font-family="Arial" font-size="14.00" fill="#000000">mmu </text>
<text text-anchor="middle" x="784" y="-505.8" font-family="Arial" font-size="14.00" fill="#000000">: X86MMU</text>
</a>
</g>
</g>
<g id="clust10" class="cluster">
<title>cluster_board_processor_start_core_mmu_itb</title>
<g id="a_clust10"><a xlink:title="entry_type=instruction&#10;eventq_index=0&#10;&#10;ext_level=Null&#10;size=64&#10;system=board&#10;walker=board.processor.start.core.mmu.itb.walker">
<path fill="#9f9c95" stroke="#000000" d="M800,-346C800,-346 943,-346 943,-346 949,-346 955,-352 955,-358 955,-358 955,-478 955,-478 955,-484 949,-490 943,-490 943,-490 800,-490 800,-490 794,-490 788,-484 788,-478 788,-478 788,-358 788,-358 788,-352 794,-346 800,-346"/>
<text text-anchor="middle" x="871.5" y="-474.8" font-family="Arial" font-size="14.00" fill="#000000">itb </text>
<text text-anchor="middle" x="871.5" y="-459.8" font-family="Arial" font-size="14.00" fill="#000000">: X86TLB</text>
</a>
</g>
</g>
<g id="clust11" class="cluster">
<title>cluster_board_processor_start_core_mmu_itb_walker</title>
<g id="a_clust11"><a xlink:title="clk_domain=board.clk_domain&#10;eventq_index=0&#10;&#10;um_squash_per_cycle=4&#10;power_model=&#10;power_state=board.processor.start.core.mmu.itb.walker.power_state&#10;system=board">
<path fill="#84827c" stroke="#000000" d="M808,-354C808,-354 935,-354 935,-354 941,-354 947,-360 947,-366 947,-366 947,-432 947,-432 947,-438 941,-444 935,-444 935,-444 808,-444 808,-444 802,-444 796,-438 796,-432 796,-432 796,-366 796,-366 796,-360 802,-354 808,-354"/>
<text text-anchor="middle" x="871.5" y="-428.8" font-family="Arial" font-size="14.00" fill="#000000">walker </text>
<text text-anchor="middle" x="871.5" y="-413.8" font-family="Arial" font-size="14.00" fill="#000000">: X86PagetableWalker</text>
</a>
</g>
</g>
<g id="clust13" class="cluster">
<title>cluster_board_processor_start_core_mmu_dtb</title>
<g id="a_clust13"><a xlink:title="entry_type=data&#10;eventq_index=0&#10;&#10;ext_level=Null&#10;size=64&#10;system=board&#10;walker=board.processor.start.core.mmu.dtb.walker">
<path fill="#9f9c95" stroke="#000000" d="M625,-346C625,-346 768,-346 768,-346 774,-346 780,-352 780,-358 780,-358 780,-478 780,-478 780,-484 774,-490 768,-490 768,-490 625,-490 625,-490 619,-490 613,-484 613,-478 613,-478 613,-358 613,-358 613,-352 619,-346 625,-346"/>
<text text-anchor="middle" x="696.5" y="-474.8" font-family="Arial" font-size="14.00" fill="#000000">dtb </text>
<text text-anchor="middle" x="696.5" y="-459.8" font-family="Arial" font-size="14.00" fill="#000000">: X86TLB</text>
</a>
</g>
</g>
<g id="clust14" class="cluster">
<title>cluster_board_processor_start_core_mmu_dtb_walker</title>
<g id="a_clust14"><a xlink:title="clk_domain=board.clk_domain&#10;eventq_index=0&#10;&#10;um_squash_per_cycle=4&#10;power_model=&#10;power_state=board.processor.start.core.mmu.dtb.walker.power_state&#10;system=board">
<path fill="#84827c" stroke="#000000" d="M633,-354C633,-354 760,-354 760,-354 766,-354 772,-360 772,-366 772,-366 772,-432 772,-432 772,-438 766,-444 760,-444 760,-444 633,-444 633,-444 627,-444 621,-438 621,-432 621,-432 621,-366 621,-366 621,-360 627,-354 633,-354"/>
<text text-anchor="middle" x="696.5" y="-428.8" font-family="Arial" font-size="14.00" fill="#000000">walker </text>
<text text-anchor="middle" x="696.5" y="-413.8" font-family="Arial" font-size="14.00" fill="#000000">: X86PagetableWalker</text>
</a>
</g>
</g>
<g id="clust22" class="cluster">
<title>cluster_board_processor_start_core_interrupts</title>
<g id="a_clust22"><a xlink:title="clk_domain=board.processor.start.core.interrupts.clk_domain&#10;eventq_index=0&#10;int_latency=1000&#10;pio_latency=100000&#10;system=board">
<path fill="#bab6ae" stroke="#000000" d="M308,-354C308,-354 585,-354 585,-354 591,-354 597,-360 597,-366 597,-366 597,-432 597,-432 597,-438 591,-444 585,-444 585,-444 308,-444 308,-444 302,-444 296,-438 296,-432 296,-432 296,-366 296,-366 296,-360 302,-354 308,-354"/>
<text text-anchor="middle" x="446.5" y="-428.8" font-family="Arial" font-size="14.00" fill="#000000">interrupts </text>
<text text-anchor="middle" x="446.5" y="-413.8" font-family="Arial" font-size="14.00" fill="#000000">: X86LocalApic</text>
</a>
</g>
</g>
<g id="clust146" class="cluster">
<title>cluster_board_memory</title>
<g id="a_clust146"><a xlink:title="eventq_index=0&#10;thermal_domain=Null">
<path fill="#bab6ae" stroke="#000000" d="M136,-346C136,-346 252,-346 252,-346 258,-346 264,-352 264,-358 264,-358 264,-478 264,-478 264,-484 258,-490 252,-490 252,-490 136,-490 136,-490 130,-490 124,-484 124,-478 124,-478 124,-358 124,-358 124,-352 130,-346 136,-346"/>
<text text-anchor="middle" x="194" y="-474.8" font-family="Arial" font-size="14.00" fill="#000000">memory </text>
<text text-anchor="middle" x="194" y="-459.8" font-family="Arial" font-size="14.00" fill="#000000">: ChanneledMemory</text>
</a>
</g>
</g>
<g id="clust147" class="cluster">
<title>cluster_board_memory_mem_ctrl</title>
<g id="a_clust147"><a xlink:title="clk_domain=board.clk_domain&#10;command_window=10000&#10;disable_sanity_check=false&#10;dram=board.memory.mem_ctrl.dram&#10;eventq_index=0&#10;mem_sched_policy=frfcfs&#10;min_reads_per_switch=16&#10;min_writes_per_switch=16&#10;power_model=&#10;power_state=board.memory.mem_ctrl.power_state&#10;qos_policy=Null&#10;qos_priorities=1&#10;qos_priority_escalation=false&#10;qos_q_policy=fifo&#10;qos_requestors= &#160;&#160;&#160;&#160;&#160;&#160;&#160;&#160;&#160;&#160;&#160;&#160;&#160;&#160;&#10;qos_syncro_scheduler=false&#10;qos_turnaround_policy=Null&#10;static_backend_latency=10000&#10;static_frontend_latency=10000&#10;system=board&#10;write_high_thresh_perc=85&#10;write_low_thresh_perc=50">
<path fill="#9f9c95" stroke="#000000" d="M191,-354C191,-354 244,-354 244,-354 250,-354 256,-360 256,-366 256,-366 256,-432 256,-432 256,-438 250,-444 244,-444 244,-444 191,-444 191,-444 185,-444 179,-438 179,-432 179,-432 179,-366 179,-366 179,-360 185,-354 191,-354"/>
<text text-anchor="middle" x="217.5" y="-428.8" font-family="Arial" font-size="14.00" fill="#000000">mem_ctrl </text>
<text text-anchor="middle" x="217.5" y="-413.8" font-family="Arial" font-size="14.00" fill="#000000">: MemCtrl</text>
</a>
</g>
</g>
<g id="clust151" class="cluster">
<title>cluster_board_cache_hierarchy</title>
<g id="a_clust151"><a xlink:title="eventq_index=0&#10;thermal_domain=Null">
<path fill="#bab6ae" stroke="#000000" d="M269,-24C269,-24 1179,-24 1179,-24 1185,-24 1191,-30 1191,-36 1191,-36 1191,-294 1191,-294 1191,-300 1185,-306 1179,-306 1179,-306 269,-306 269,-306 263,-306 257,-300 257,-294 257,-294 257,-36 257,-36 257,-30 263,-24 269,-24"/>
<text text-anchor="middle" x="724" y="-290.8" font-family="Arial" font-size="14.00" fill="#000000">cache_hierarchy </text>
<text text-anchor="middle" x="724" y="-275.8" font-family="Arial" font-size="14.00" fill="#000000">: CustomCacheHierarchy</text>
</a>
</g>
</g>
<g id="clust152" class="cluster">
<title>cluster_board_cache_hierarchy_membus</title>
<g id="a_clust152"><a xlink:title="clk_domain=board.clk_domain&#10;eventq_index=0&#10;forward_latency=4&#10;frontend_latency=3&#10;header_latency=1&#10;max_outstanding_snoops=512&#10;max_routing_table_size=512&#10;point_of_coherency=true&#10;point_of_unification=true&#10;power_model=&#10;power_state=board.cache_hierarchy.membus.power_state&#10;&#13;esponse_latency=2&#10;snoop_filter=board.cache_hierarchy.membus.snoop_filter&#10;snoop_response_latency=4&#10;system=board&#10;use_default_range=false&#10;width=64">
<path fill="#6f798c" stroke="#000000" d="M277,-32C277,-32 589,-32 589,-32 595,-32 601,-38 601,-44 601,-44 601,-248 601,-248 601,-254 595,-260 589,-260 589,-260 277,-260 277,-260 271,-260 265,-254 265,-248 265,-248 265,-44 265,-44 265,-38 271,-32 277,-32"/>
<text text-anchor="middle" x="433" y="-244.8" font-family="Arial" font-size="14.00" fill="#000000">membus </text>
<text text-anchor="middle" x="433" y="-229.8" font-family="Arial" font-size="14.00" fill="#000000">: SystemXBar</text>
</a>
</g>
</g>
<g id="clust155" class="cluster">
<title>cluster_board_cache_hierarchy_membus_badaddr_responder</title>
<g id="a_clust155"><a xlink:title="clk_domain=board.clk_domain&#10;eventq_index=0&#10;fake_mem=false&#10;pio_addr=0&#10;pio_latency=100000&#10;pio_size=8&#10;power_model=&#10;power_state=board.cache_hierarchy.membus.badaddr_responder.power_state&#10;&#13;et_bad_addr=true&#10;&#13;et_data16=65535&#10;&#13;et_data32=4294967295&#10;&#13;et_data64=18446744073709551615&#10;&#13;et_data8=255&#10;system=board&#10;update_data=false&#10;warn_access=">
<path fill="#c7a793" stroke="#000000" d="M285,-40C285,-40 399,-40 399,-40 405,-40 411,-46 411,-52 411,-52 411,-118 411,-118 411,-124 405,-130 399,-130 399,-130 285,-130 285,-130 279,-130 273,-124 273,-118 273,-118 273,-52 273,-52 273,-46 279,-40 285,-40"/>
<text text-anchor="middle" x="342" y="-114.8" font-family="Arial" font-size="14.00" fill="#000000">badaddr_responder </text>
<text text-anchor="middle" x="342" y="-99.8" font-family="Arial" font-size="14.00" fill="#000000">: BadAddr</text>
</a>
</g>
</g>
<g id="clust157" class="cluster">
<title>cluster_board_cache_hierarchy_l2buses</title>
<g id="a_clust157"><a xlink:title="clk_domain=board.clk_domain&#10;eventq_index=0&#10;forward_latency=0&#10;frontend_latency=1&#10;header_latency=1&#10;max_outstanding_snoops=512&#10;max_routing_table_size=512&#10;point_of_coherency=false&#10;point_of_unification=true&#10;power_model=&#10;power_state=board.cache_hierarchy.l2buses.power_state&#10;&#13;esponse_latency=1&#10;snoop_filter=board.cache_hierarchy.l2buses.snoop_filter&#10;snoop_response_latency=1&#10;system=board&#10;use_default_range=false&#10;width=32">
<path fill="#6f798c" stroke="#000000" d="M696,-170C696,-170 932,-170 932,-170 938,-170 944,-176 944,-182 944,-182 944,-248 944,-248 944,-254 938,-260 932,-260 932,-260 696,-260 696,-260 690,-260 684,-254 684,-248 684,-248 684,-182 684,-182 684,-176 690,-170 696,-170"/>
<text text-anchor="middle" x="814" y="-244.8" font-family="Arial" font-size="14.00" fill="#000000">l2buses </text>
<text text-anchor="middle" x="814" y="-229.8" font-family="Arial" font-size="14.00" fill="#000000">: L2XBar</text>
</a>
</g>
</g>
<g id="clust160" class="cluster">
<title>cluster_board_cache_hierarchy_l2&#45;cache&#45;0</title>
<g id="a_clust160"><a xlink:title="addr_ranges=0:18446744073709551615&#10;assoc=8&#10;clk_domain=board.clk_domain&#10;clusivity=mostly_incl&#10;compressor=Null&#10;data_latency=3&#10;demand_mshr_reserve=1&#10;eventq_index=0&#10;is_read_only=false&#10;max_miss_count=0&#10;move_contractions=true&#10;mshrs=32&#10;partitioning_manager=Null&#10;power_model=&#10;power_state=board.cache_hierarchy.l2&#45;cache&#45;0.power_state&#10;prefetcher=board.cache_hierarchy.l2&#45;cache&#45;0.prefetcher&#10;&#13;eplace_expansions=true&#10;&#13;eplacement_policy=board.cache_hierarchy.l2&#45;cache&#45;0.replacement_policy&#10;&#13;esponse_latency=3&#10;sequential_access=false&#10;size=262144&#10;system=board&#10;tag_latency=3&#10;tags=board.cache_hierarchy.l2&#45;cache&#45;0.tags&#10;tgts_per_mshr=12&#10;warmup_percentage=0&#10;write_allocator=Null&#10;write_buffers=8&#10;writeback_clean=false">
<path fill="#9f9c95" stroke="#000000" d="M621,-40C621,-40 783,-40 783,-40 789,-40 795,-46 795,-52 795,-52 795,-118 795,-118 795,-124 789,-130 783,-130 783,-130 621,-130 621,-130 615,-130 609,-124 609,-118 609,-118 609,-52 609,-52 609,-46 615,-40 621,-40"/>
<text text-anchor="middle" x="702" y="-114.8" font-family="Arial" font-size="14.00" fill="#000000">l2&#45;cache&#45;0 </text>
<text text-anchor="middle" x="702" y="-99.8" font-family="Arial" font-size="14.00" fill="#000000">: L2Cache</text>
</a>
</g>
</g>
<g id="clust168" class="cluster">
<title>cluster_board_cache_hierarchy_l1i&#45;cache&#45;0</title>
<g id="a_clust168"><a xlink:title="addr_ranges=0:18446744073709551615&#10;assoc=4&#10;clk_domain=board.clk_domain&#10;clusivity=mostly_incl&#10;compressor=Null&#10;data_latency=1&#10;demand_mshr_reserve=1&#10;eventq_index=0&#10;is_read_only=false&#10;max_miss_count=0&#10;move_contractions=true&#10;mshrs=32&#10;partitioning_manager=Null&#10;power_model=&#10;power_state=board.cache_hierarchy.l1i&#45;cache&#45;0.power_state&#10;prefetcher=Null&#10;&#13;eplace_expansions=true&#10;&#13;eplacement_policy=board.cache_hierarchy.l1i&#45;cache&#45;0.replacement_policy&#10;&#13;esponse_latency=1&#10;sequential_access=false&#10;size=32768&#10;system=board&#10;tag_latency=1&#10;tags=board.cache_hierarchy.l1i&#45;cache&#45;0.tags&#10;tgts_per_mshr=20&#10;warmup_percentage=0&#10;write_allocator=Null&#10;write_buffers=8&#10;writeback_clean=true">
<path fill="#9f9c95" stroke="#000000" d="M815,-40C815,-40 977,-40 977,-40 983,-40 989,-46 989,-52 989,-52 989,-118 989,-118 989,-124 983,-130 977,-130 977,-130 815,-130 815,-130 809,-130 803,-124 803,-118 803,-118 803,-52 803,-52 803,-46 809,-40 815,-40"/>
<text text-anchor="middle" x="896" y="-114.8" font-family="Arial" font-size="14.00" fill="#000000">l1i&#45;cache&#45;0 </text>
<text text-anchor="middle" x="896" y="-99.8" font-family="Arial" font-size="14.00" fill="#000000">: L1ICache</text>
</a>
</g>
</g>
<g id="clust174" class="cluster">
<title>cluster_board_cache_hierarchy_l1d&#45;cache&#45;0</title>
<g id="a_clust174"><a xlink:title="addr_ranges=0:18446744073709551615&#10;assoc=4&#10;clk_domain=board.clk_domain&#10;clusivity=mostly_incl&#10;compressor=Null&#10;data_latency=1&#10;demand_mshr_reserve=1&#10;eventq_index=0&#10;is_read_only=false&#10;max_miss_count=0&#10;move_contractions=true&#10;mshrs=32&#10;partitioning_manager=Null&#10;power_model=&#10;power_state=board.cache_hierarchy.l1d&#45;cache&#45;0.power_state&#10;prefetcher=Null&#10;&#13;eplace_expansions=true&#10;&#13;eplacement_policy=board.cache_hierarchy.l1d&#45;cache&#45;0.replacement_policy&#10;&#13;esponse_latency=1&#10;sequential_access=false&#10;size=32768&#10;system=board&#10;tag_latency=1&#10;tags=board.cache_hierarchy.l1d&#45;cache&#45;0.tags&#10;tgts_per_mshr=20&#10;warmup_percentage=0&#10;write_allocator=Null&#10;write_buffers=8&#10;writeback_clean=false">
<path fill="#9f9c95" stroke="#000000" d="M1009,-40C1009,-40 1171,-40 1171,-40 1177,-40 1183,-46 1183,-52 1183,-52 1183,-118 1183,-118 1183,-124 1177,-130 1171,-130 1171,-130 1009,-130 1009,-130 1003,-130 997,-124 997,-118 997,-118 997,-52 997,-52 997,-46 1003,-40 1009,-40"/>
<text text-anchor="middle" x="1090" y="-114.8" font-family="Arial" font-size="14.00" fill="#000000">l1d&#45;cache&#45;0 </text>
<text text-anchor="middle" x="1090" y="-99.8" font-family="Arial" font-size="14.00" fill="#000000">: L1DCache</text>
</a>
</g>
</g>
<!-- board_system_port -->
<g id="node1" class="node">
<title>board_system_port</title>
<path fill="#b6b8bc" stroke="#000000" d="M103.5,-398C103.5,-398 36.5,-398 36.5,-398 30.5,-398 24.5,-392 24.5,-386 24.5,-386 24.5,-374 24.5,-374 24.5,-368 30.5,-362 36.5,-362 36.5,-362 103.5,-362 103.5,-362 109.5,-362 115.5,-368 115.5,-374 115.5,-374 115.5,-386 115.5,-386 115.5,-392 109.5,-398 103.5,-398"/>
<text text-anchor="middle" x="70" y="-376.3" font-family="Arial" font-size="14.00" fill="#000000">system_port</text>
</g>
<!-- board_cache_hierarchy_membus_cpu_side_ports -->
<g id="node10" class="node">
<title>board_cache_hierarchy_membus_cpu_side_ports</title>
<path fill="#586070" stroke="#000000" d="M581,-214C581,-214 497,-214 497,-214 491,-214 485,-208 485,-202 485,-202 485,-190 485,-190 485,-184 491,-178 497,-178 497,-178 581,-178 581,-178 587,-178 593,-184 593,-190 593,-190 593,-202 593,-202 593,-208 587,-214 581,-214"/>
<text text-anchor="middle" x="539" y="-192.3" font-family="Arial" font-size="14.00" fill="#000000">cpu_side_ports</text>
</g>
<!-- board_system_port&#45;&gt;board_cache_hierarchy_membus_cpu_side_ports -->
<g id="edge1" class="edge">
<title>board_system_port&#45;&gt;board_cache_hierarchy_membus_cpu_side_ports</title>
<path fill="none" stroke="black" d="M90.11,-361.98C110.15,-346.19 142.54,-323.7 175,-314 207.06,-304.42 447.25,-323.1 476,-306 506.02,-288.14 523.11,-250.11 531.71,-224.05"/>
<polygon fill="black" stroke="black" points="535.09,-224.96 534.7,-214.38 528.4,-222.9 535.09,-224.96"/>
</g>
<!-- board_processor_start_core_icache_port -->
<g id="node2" class="node">
<title>board_processor_start_core_icache_port</title>
<path fill="#959ead" stroke="#000000" d="M1045,-398C1045,-398 983,-398 983,-398 977,-398 971,-392 971,-386 971,-386 971,-374 971,-374 971,-368 977,-362 983,-362 983,-362 1045,-362 1045,-362 1051,-362 1057,-368 1057,-374 1057,-374 1057,-386 1057,-386 1057,-392 1051,-398 1045,-398"/>
<text text-anchor="middle" x="1014" y="-376.3" font-family="Arial" font-size="14.00" fill="#000000">icache_port</text>
</g>
<!-- board_cache_hierarchy_l1i&#45;cache&#45;0_cpu_side -->
<g id="node18" class="node">
<title>board_cache_hierarchy_l1i&#45;cache&#45;0_cpu_side</title>
<path fill="#7f7c77" stroke="#000000" d="M968.5,-84C968.5,-84 921.5,-84 921.5,-84 915.5,-84 909.5,-78 909.5,-72 909.5,-72 909.5,-60 909.5,-60 909.5,-54 915.5,-48 921.5,-48 921.5,-48 968.5,-48 968.5,-48 974.5,-48 980.5,-54 980.5,-60 980.5,-60 980.5,-72 980.5,-72 980.5,-78 974.5,-84 968.5,-84"/>
<text text-anchor="middle" x="945" y="-62.3" font-family="Arial" font-size="14.00" fill="#000000">cpu_side</text>
</g>
<!-- board_processor_start_core_icache_port&#45;&gt;board_cache_hierarchy_l1i&#45;cache&#45;0_cpu_side -->
<g id="edge2" class="edge">
<title>board_processor_start_core_icache_port&#45;&gt;board_cache_hierarchy_l1i&#45;cache&#45;0_cpu_side</title>
<path fill="none" stroke="black" d="M1010.19,-361.78C998.79,-310.22 964.85,-156.74 950.99,-94.09"/>
<polygon fill="black" stroke="black" points="954.37,-93.17 948.8,-84.17 947.54,-94.69 954.37,-93.17"/>
</g>
<!-- board_processor_start_core_dcache_port -->
<g id="node3" class="node">
<title>board_processor_start_core_dcache_port</title>
<path fill="#959ead" stroke="#000000" d="M1154.5,-398C1154.5,-398 1087.5,-398 1087.5,-398 1081.5,-398 1075.5,-392 1075.5,-386 1075.5,-386 1075.5,-374 1075.5,-374 1075.5,-368 1081.5,-362 1087.5,-362 1087.5,-362 1154.5,-362 1154.5,-362 1160.5,-362 1166.5,-368 1166.5,-374 1166.5,-374 1166.5,-386 1166.5,-386 1166.5,-392 1160.5,-398 1154.5,-398"/>
<text text-anchor="middle" x="1121" y="-376.3" font-family="Arial" font-size="14.00" fill="#000000">dcache_port</text>
</g>
<!-- board_cache_hierarchy_l1d&#45;cache&#45;0_cpu_side -->
<g id="node20" class="node">
<title>board_cache_hierarchy_l1d&#45;cache&#45;0_cpu_side</title>
<path fill="#7f7c77" stroke="#000000" d="M1162.5,-84C1162.5,-84 1115.5,-84 1115.5,-84 1109.5,-84 1103.5,-78 1103.5,-72 1103.5,-72 1103.5,-60 1103.5,-60 1103.5,-54 1109.5,-48 1115.5,-48 1115.5,-48 1162.5,-48 1162.5,-48 1168.5,-48 1174.5,-54 1174.5,-60 1174.5,-60 1174.5,-72 1174.5,-72 1174.5,-78 1168.5,-84 1162.5,-84"/>
<text text-anchor="middle" x="1139" y="-62.3" font-family="Arial" font-size="14.00" fill="#000000">cpu_side</text>
</g>
<!-- board_processor_start_core_dcache_port&#45;&gt;board_cache_hierarchy_l1d&#45;cache&#45;0_cpu_side -->
<g id="edge3" class="edge">
<title>board_processor_start_core_dcache_port&#45;&gt;board_cache_hierarchy_l1d&#45;cache&#45;0_cpu_side</title>
<path fill="none" stroke="black" d="M1121.99,-361.78C1124.96,-310.32 1133.79,-157.37 1137.41,-94.48"/>
<polygon fill="black" stroke="black" points="1140.93,-94.35 1138.01,-84.17 1133.94,-93.95 1140.93,-94.35"/>
</g>
<!-- board_processor_start_core_mmu_itb_walker_port -->
<g id="node4" class="node">
<title>board_processor_start_core_mmu_itb_walker_port</title>
<path fill="#6a6863" stroke="#000000" d="M846,-398C846,-398 816,-398 816,-398 810,-398 804,-392 804,-386 804,-386 804,-374 804,-374 804,-368 810,-362 816,-362 816,-362 846,-362 846,-362 852,-362 858,-368 858,-374 858,-374 858,-386 858,-386 858,-392 852,-398 846,-398"/>
<text text-anchor="middle" x="831" y="-376.3" font-family="Arial" font-size="14.00" fill="#000000">port</text>
</g>
<!-- board_processor_start_core_mmu_itb_walker_port&#45;&gt;board_cache_hierarchy_membus_cpu_side_ports -->
<g id="edge4" class="edge">
<title>board_processor_start_core_mmu_itb_walker_port&#45;&gt;board_cache_hierarchy_membus_cpu_side_ports</title>
<path fill="none" stroke="black" d="M821.76,-361.83C812.44,-346.39 796.5,-324.56 776,-314 737.94,-294.39 719.91,-321.51 680,-306 632.49,-287.54 587.74,-247.7 561.87,-221.64"/>
<polygon fill="black" stroke="black" points="564.26,-219.08 554.77,-214.36 559.25,-223.97 564.26,-219.08"/>
</g>
<!-- board_processor_start_core_mmu_dtb_walker_port -->
<g id="node5" class="node">
<title>board_processor_start_core_mmu_dtb_walker_port</title>
<path fill="#6a6863" stroke="#000000" d="M671,-398C671,-398 641,-398 641,-398 635,-398 629,-392 629,-386 629,-386 629,-374 629,-374 629,-368 635,-362 641,-362 641,-362 671,-362 671,-362 677,-362 683,-368 683,-374 683,-374 683,-386 683,-386 683,-392 677,-398 671,-398"/>
<text text-anchor="middle" x="656" y="-376.3" font-family="Arial" font-size="14.00" fill="#000000">port</text>
</g>
<!-- board_processor_start_core_mmu_dtb_walker_port&#45;&gt;board_cache_hierarchy_membus_cpu_side_ports -->
<g id="edge5" class="edge">
<title>board_processor_start_core_mmu_dtb_walker_port&#45;&gt;board_cache_hierarchy_membus_cpu_side_ports</title>
<path fill="none" stroke="black" d="M644.99,-361.88C624.35,-329.76 579.72,-260.34 555.48,-222.63"/>
<polygon fill="black" stroke="black" points="558.41,-220.73 550.06,-214.21 552.53,-224.51 558.41,-220.73"/>
</g>
<!-- board_processor_start_core_interrupts_int_requestor -->
<g id="node6" class="node">
<title>board_processor_start_core_interrupts_int_requestor</title>
<path fill="#94918b" stroke="#000000" d="M576.5,-398C576.5,-398 505.5,-398 505.5,-398 499.5,-398 493.5,-392 493.5,-386 493.5,-386 493.5,-374 493.5,-374 493.5,-368 499.5,-362 505.5,-362 505.5,-362 576.5,-362 576.5,-362 582.5,-362 588.5,-368 588.5,-374 588.5,-374 588.5,-386 588.5,-386 588.5,-392 582.5,-398 576.5,-398"/>
<text text-anchor="middle" x="541" y="-376.3" font-family="Arial" font-size="14.00" fill="#000000">int_requestor</text>
</g>
<!-- board_processor_start_core_interrupts_int_requestor&#45;&gt;board_cache_hierarchy_membus_cpu_side_ports -->
<g id="edge6" class="edge">
<title>board_processor_start_core_interrupts_int_requestor&#45;&gt;board_cache_hierarchy_membus_cpu_side_ports</title>
<path fill="none" stroke="black" d="M540.81,-361.88C540.46,-330.31 539.72,-262.67 539.3,-224.57"/>
<polygon fill="black" stroke="black" points="542.8,-224.17 539.19,-214.21 535.8,-224.25 542.8,-224.17"/>
</g>
<!-- board_processor_start_core_interrupts_int_responder -->
<g id="node7" class="node">
<title>board_processor_start_core_interrupts_int_responder</title>
<path fill="#94918b" stroke="#000000" d="M463.5,-398C463.5,-398 388.5,-398 388.5,-398 382.5,-398 376.5,-392 376.5,-386 376.5,-386 376.5,-374 376.5,-374 376.5,-368 382.5,-362 388.5,-362 388.5,-362 463.5,-362 463.5,-362 469.5,-362 475.5,-368 475.5,-374 475.5,-374 475.5,-386 475.5,-386 475.5,-392 469.5,-398 463.5,-398"/>
<text text-anchor="middle" x="426" y="-376.3" font-family="Arial" font-size="14.00" fill="#000000">int_responder</text>
</g>
<!-- board_cache_hierarchy_membus_mem_side_ports -->
<g id="node11" class="node">
<title>board_cache_hierarchy_membus_mem_side_ports</title>
<path fill="#586070" stroke="#000000" d="M455,-214C455,-214 361,-214 361,-214 355,-214 349,-208 349,-202 349,-202 349,-190 349,-190 349,-184 355,-178 361,-178 361,-178 455,-178 455,-178 461,-178 467,-184 467,-190 467,-190 467,-202 467,-202 467,-208 461,-214 455,-214"/>
<text text-anchor="middle" x="408" y="-192.3" font-family="Arial" font-size="14.00" fill="#000000">mem_side_ports</text>
</g>
<!-- board_processor_start_core_interrupts_int_responder&#45;&gt;board_cache_hierarchy_membus_mem_side_ports -->
<g id="edge7" class="edge">
<title>board_processor_start_core_interrupts_int_responder&#45;&gt;board_cache_hierarchy_membus_mem_side_ports</title>
<path fill="none" stroke="black" d="M423.28,-351.54C419.52,-313.49 412.83,-245.85 409.7,-214.21"/>
<polygon fill="black" stroke="black" points="419.84,-352.27 424.31,-361.88 426.81,-351.58 419.84,-352.27"/>
</g>
<!-- board_processor_start_core_interrupts_pio -->
<g id="node8" class="node">
<title>board_processor_start_core_interrupts_pio</title>
<path fill="#94918b" stroke="#000000" d="M346,-398C346,-398 316,-398 316,-398 310,-398 304,-392 304,-386 304,-386 304,-374 304,-374 304,-368 310,-362 316,-362 316,-362 346,-362 346,-362 352,-362 358,-368 358,-374 358,-374 358,-386 358,-386 358,-392 352,-398 346,-398"/>
<text text-anchor="middle" x="331" y="-376.3" font-family="Arial" font-size="14.00" fill="#000000">pio</text>
</g>
<!-- board_processor_start_core_interrupts_pio&#45;&gt;board_cache_hierarchy_membus_mem_side_ports -->
<g id="edge8" class="edge">
<title>board_processor_start_core_interrupts_pio&#45;&gt;board_cache_hierarchy_membus_mem_side_ports</title>
<path fill="none" stroke="black" d="M342.21,-352.51C358.23,-314.65 387.22,-246.12 400.72,-214.21"/>
<polygon fill="black" stroke="black" points="338.92,-351.3 338.24,-361.88 345.36,-354.03 338.92,-351.3"/>
</g>
<!-- board_memory_mem_ctrl_port -->
<g id="node9" class="node">
<title>board_memory_mem_ctrl_port</title>
<path fill="#7f7c77" stroke="#000000" d="M236,-398C236,-398 206,-398 206,-398 200,-398 194,-392 194,-386 194,-386 194,-374 194,-374 194,-368 200,-362 206,-362 206,-362 236,-362 236,-362 242,-362 248,-368 248,-374 248,-374 248,-386 248,-386 248,-392 242,-398 236,-398"/>
<text text-anchor="middle" x="221" y="-376.3" font-family="Arial" font-size="14.00" fill="#000000">port</text>
</g>
<!-- board_memory_mem_ctrl_port&#45;&gt;board_cache_hierarchy_membus_mem_side_ports -->
<g id="edge9" class="edge">
<title>board_memory_mem_ctrl_port&#45;&gt;board_cache_hierarchy_membus_mem_side_ports</title>
<path fill="none" stroke="black" d="M241.24,-354.43C254.25,-340.33 272.35,-323.57 292,-314 311.44,-304.53 322.02,-318.02 340,-306 373.38,-283.69 393.44,-238.87 402.4,-214.22"/>
<polygon fill="black" stroke="black" points="238.6,-352.13 234.56,-361.93 243.82,-356.79 238.6,-352.13"/>
</g>
<!-- board_cache_hierarchy_l2&#45;cache&#45;0_mem_side -->
<g id="node17" class="node">
<title>board_cache_hierarchy_l2&#45;cache&#45;0_mem_side</title>
<path fill="#7f7c77" stroke="#000000" d="M685,-84C685,-84 629,-84 629,-84 623,-84 617,-78 617,-72 617,-72 617,-60 617,-60 617,-54 623,-48 629,-48 629,-48 685,-48 685,-48 691,-48 697,-54 697,-60 697,-60 697,-72 697,-72 697,-78 691,-84 685,-84"/>
<text text-anchor="middle" x="657" y="-62.3" font-family="Arial" font-size="14.00" fill="#000000">mem_side</text>
</g>
<!-- board_cache_hierarchy_membus_cpu_side_ports&#45;&gt;board_cache_hierarchy_l2&#45;cache&#45;0_mem_side -->
<g id="edge10" class="edge">
<title>board_cache_hierarchy_membus_cpu_side_ports&#45;&gt;board_cache_hierarchy_l2&#45;cache&#45;0_mem_side</title>
<path fill="none" stroke="black" d="M561.7,-170.37C584.95,-145.16 620.49,-106.6 640.96,-84.4"/>
<polygon fill="black" stroke="black" points="559.12,-168.01 554.91,-177.74 564.27,-172.76 559.12,-168.01"/>
</g>
<!-- board_cache_hierarchy_membus_default -->
<g id="node12" class="node">
<title>board_cache_hierarchy_membus_default</title>
<path fill="#586070" stroke="#000000" d="M318.5,-214C318.5,-214 285.5,-214 285.5,-214 279.5,-214 273.5,-208 273.5,-202 273.5,-202 273.5,-190 273.5,-190 273.5,-184 279.5,-178 285.5,-178 285.5,-178 318.5,-178 318.5,-178 324.5,-178 330.5,-184 330.5,-190 330.5,-190 330.5,-202 330.5,-202 330.5,-208 324.5,-214 318.5,-214"/>
<text text-anchor="middle" x="302" y="-192.3" font-family="Arial" font-size="14.00" fill="#000000">default</text>
</g>
<!-- board_cache_hierarchy_membus_badaddr_responder_pio -->
<g id="node13" class="node">
<title>board_cache_hierarchy_membus_badaddr_responder_pio</title>
<path fill="#9f8575" stroke="#000000" d="M323,-84C323,-84 293,-84 293,-84 287,-84 281,-78 281,-72 281,-72 281,-60 281,-60 281,-54 287,-48 293,-48 293,-48 323,-48 323,-48 329,-48 335,-54 335,-60 335,-60 335,-72 335,-72 335,-78 329,-84 323,-84"/>
<text text-anchor="middle" x="308" y="-62.3" font-family="Arial" font-size="14.00" fill="#000000">pio</text>
</g>
<!-- board_cache_hierarchy_membus_default&#45;&gt;board_cache_hierarchy_membus_badaddr_responder_pio -->
<g id="edge11" class="edge">
<title>board_cache_hierarchy_membus_default&#45;&gt;board_cache_hierarchy_membus_badaddr_responder_pio</title>
<path fill="none" stroke="black" d="M302.81,-177.74C303.81,-156.36 305.53,-119.69 306.71,-94.44"/>
<polygon fill="black" stroke="black" points="310.21,-94.55 307.18,-84.4 303.22,-94.22 310.21,-94.55"/>
</g>
<!-- board_cache_hierarchy_l2buses_cpu_side_ports -->
<g id="node14" class="node">
<title>board_cache_hierarchy_l2buses_cpu_side_ports</title>
<path fill="#586070" stroke="#000000" d="M924,-214C924,-214 840,-214 840,-214 834,-214 828,-208 828,-202 828,-202 828,-190 828,-190 828,-184 834,-178 840,-178 840,-178 924,-178 924,-178 930,-178 936,-184 936,-190 936,-190 936,-202 936,-202 936,-208 930,-214 924,-214"/>
<text text-anchor="middle" x="882" y="-192.3" font-family="Arial" font-size="14.00" fill="#000000">cpu_side_ports</text>
</g>
<!-- board_cache_hierarchy_l1i&#45;cache&#45;0_mem_side -->
<g id="node19" class="node">
<title>board_cache_hierarchy_l1i&#45;cache&#45;0_mem_side</title>
<path fill="#7f7c77" stroke="#000000" d="M879,-84C879,-84 823,-84 823,-84 817,-84 811,-78 811,-72 811,-72 811,-60 811,-60 811,-54 817,-48 823,-48 823,-48 879,-48 879,-48 885,-48 891,-54 891,-60 891,-60 891,-72 891,-72 891,-78 885,-84 879,-84"/>
<text text-anchor="middle" x="851" y="-62.3" font-family="Arial" font-size="14.00" fill="#000000">mem_side</text>
</g>
<!-- board_cache_hierarchy_l2buses_cpu_side_ports&#45;&gt;board_cache_hierarchy_l1i&#45;cache&#45;0_mem_side -->
<g id="edge12" class="edge">
<title>board_cache_hierarchy_l2buses_cpu_side_ports&#45;&gt;board_cache_hierarchy_l1i&#45;cache&#45;0_mem_side</title>
<path fill="none" stroke="black" d="M875.39,-167.72C869.29,-142.52 860.41,-105.84 855.21,-84.4"/>
<polygon fill="black" stroke="black" points="872.06,-168.84 877.82,-177.74 878.87,-167.19 872.06,-168.84"/>
</g>
<!-- board_cache_hierarchy_l1d&#45;cache&#45;0_mem_side -->
<g id="node21" class="node">
<title>board_cache_hierarchy_l1d&#45;cache&#45;0_mem_side</title>
<path fill="#7f7c77" stroke="#000000" d="M1073,-84C1073,-84 1017,-84 1017,-84 1011,-84 1005,-78 1005,-72 1005,-72 1005,-60 1005,-60 1005,-54 1011,-48 1017,-48 1017,-48 1073,-48 1073,-48 1079,-48 1085,-54 1085,-60 1085,-60 1085,-72 1085,-72 1085,-78 1079,-84 1073,-84"/>
<text text-anchor="middle" x="1045" y="-62.3" font-family="Arial" font-size="14.00" fill="#000000">mem_side</text>
</g>
<!-- board_cache_hierarchy_l2buses_cpu_side_ports&#45;&gt;board_cache_hierarchy_l1d&#45;cache&#45;0_mem_side -->
<g id="edge13" class="edge">
<title>board_cache_hierarchy_l2buses_cpu_side_ports&#45;&gt;board_cache_hierarchy_l1d&#45;cache&#45;0_mem_side</title>
<path fill="none" stroke="black" d="M927.43,-173.09C948.51,-161.79 973.23,-146.83 993,-130 1008.87,-116.49 1023.66,-97.72 1033.38,-84.19"/>
<polygon fill="black" stroke="black" points="925.56,-170.12 918.33,-177.87 928.81,-176.32 925.56,-170.12"/>
</g>
<!-- board_cache_hierarchy_l2buses_mem_side_ports -->
<g id="node15" class="node">
<title>board_cache_hierarchy_l2buses_mem_side_ports</title>
<path fill="#586070" stroke="#000000" d="M798,-214C798,-214 704,-214 704,-214 698,-214 692,-208 692,-202 692,-202 692,-190 692,-190 692,-184 698,-178 704,-178 704,-178 798,-178 798,-178 804,-178 810,-184 810,-190 810,-190 810,-202 810,-202 810,-208 804,-214 798,-214"/>
<text text-anchor="middle" x="751" y="-192.3" font-family="Arial" font-size="14.00" fill="#000000">mem_side_ports</text>
</g>
<!-- board_cache_hierarchy_l2&#45;cache&#45;0_cpu_side -->
<g id="node16" class="node">
<title>board_cache_hierarchy_l2&#45;cache&#45;0_cpu_side</title>
<path fill="#7f7c77" stroke="#000000" d="M774.5,-84C774.5,-84 727.5,-84 727.5,-84 721.5,-84 715.5,-78 715.5,-72 715.5,-72 715.5,-60 715.5,-60 715.5,-54 721.5,-48 727.5,-48 727.5,-48 774.5,-48 774.5,-48 780.5,-48 786.5,-54 786.5,-60 786.5,-60 786.5,-72 786.5,-72 786.5,-78 780.5,-84 774.5,-84"/>
<text text-anchor="middle" x="751" y="-62.3" font-family="Arial" font-size="14.00" fill="#000000">cpu_side</text>
</g>
<!-- board_cache_hierarchy_l2buses_mem_side_ports&#45;&gt;board_cache_hierarchy_l2&#45;cache&#45;0_cpu_side -->
<g id="edge14" class="edge">
<title>board_cache_hierarchy_l2buses_mem_side_ports&#45;&gt;board_cache_hierarchy_l2&#45;cache&#45;0_cpu_side</title>
<path fill="none" stroke="black" d="M751,-177.74C751,-156.36 751,-119.69 751,-94.44"/>
<polygon fill="black" stroke="black" points="754.5,-94.4 751,-84.4 747.5,-94.4 754.5,-94.4"/>
</g>
</g>
</svg>
